<svg height="512pt" viewBox="0 0 512.17655 512" width="512pt" xmlns="http://www.w3.org/2000/svg"><path d="m229.695312 256.089844-132.414062-132.414063 70.621094-36.902343zm0 0" fill="#f0c419"/><path d="m229.695312 256.089844-141.242187-79.449219 37.429687-48.992187zm0 0" fill="#f29c1f"/><path d="m229.695312 256.089844-197.652343-70.621094 29.925781-70.621094 73.886719 70.621094zm0 0" fill="#e57e25"/><path d="m321.140625 299.589844c24.273437 32.132812 76.179687 89.070312 93.480469 99.046875 23.105468 13.75 52.816406 8.320312 69.5625-12.710938 1.445312-1.890625 2.773437-3.863281 3.972656-5.914062 14.480469-25.867188 5.277344-58.574219-20.566406-73.09375-17.304688-9.976563-92.601563-26.394531-132.589844-31.339844-2.449219-.351563-4.949219-.046875-7.242188.882813-4.484374 1.613281-7.921874 5.285156-9.234374 9.871093-1.308594 4.582031-.335938 9.515625 2.617187 13.257813zm0 0" fill="#41767f"/><path d="m329.964844 290.761719c24.277344 32.132812 76.183594 89.070312 93.484375 99.046875 19.125 11.289062 43.203125 9.746094 60.734375-3.882813 1.445312-1.890625 2.773437-3.863281 3.972656-5.914062 14.480469-25.867188 5.277344-58.574219-20.566406-73.09375-17.304688-9.976563-92.601563-26.394531-132.589844-31.339844-2.449219-.351563-4.949219-.046875-7.242188.882813-1.8125 4.828124-.976562 10.25 2.207032 14.300781zm0 0" fill="#67b9cc"/><path d="m256.175781 273.742188v141.242187l-88.273437-6.53125zm0 0" fill="#f0c419"/><path d="m344.453125 408.453125-88.277344 6.53125v-141.242187zm0 0" fill="#f29c1f"/><path d="m344.453125 408.453125h-176.550781l60.996094-8.917969 27.277343-55.171875 27.277344 55.171875zm0 0" fill="#f18d46"/><path d="m309.140625 54.464844c0 19.953125-23.390625 93.398437-39.105469 130.472656-2.324218 5.601562-7.792968 9.25-13.859375 9.25-6.0625 0-11.53125-3.648438-13.859375-9.25-15.710937-37.074219-39.105468-110.519531-39.105468-130.472656-.28125-27.0625 19.546874-50.136719 46.34375-53.933594 2.199218-.28125 4.40625-.429688 6.621093-.4414062 29.632813.4101562 53.335938 24.7421872 52.964844 54.3750002zm0 0" fill="#c03a2b"/><path d="m295.902344 54.464844c0 19.953125-23.394532 93.398437-39.109375 130.472656-1.375 3.390625-3.953125 6.15625-7.238281 7.769531-3.285157-1.613281-5.859376-4.378906-7.238282-7.769531-15.710937-37.074219-39.105468-110.519531-39.105468-130.472656-.28125-27.0625 19.546874-50.136719 46.34375-53.933594 26.796874 3.796875 46.625 26.871094 46.347656 53.933594zm0 0" fill="#e64c3c"/><path d="m191.207031 299.609375c-24.277343 32.132813-76.183593 89.070313-93.484375 99.042969-23.105468 13.75-52.816406 8.324218-69.5625-12.710938-1.445312-1.886718-2.773437-3.863281-3.972656-5.914062-14.480469-25.867188-5.277344-58.574219 20.570312-73.09375 17.300782-9.972656 92.597657-26.394532 132.589844-31.335938 2.445313-.351562 4.945313-.046875 7.238282.882813 4.484374 1.613281 7.921874 5.285156 9.234374 9.867187 1.3125 4.582032.339844 9.519532-2.613281 13.261719zm0 0" fill="#804169"/><path d="m182.378906 290.78125c-24.277344 32.132812-76.183594 89.070312-93.484375 99.046875-19.125 11.285156-43.203125 9.746094-60.734375-3.886719-1.445312-1.886718-2.773437-3.863281-3.972656-5.914062-14.480469-25.867188-5.277344-58.574219 20.570312-73.09375 17.300782-9.972656 92.597657-26.394532 132.589844-31.335938 2.445313-.351562 4.945313-.046875 7.238282.882813 1.8125 4.824219.976562 10.246093-2.207032 14.300781zm0 0" fill="#cc66a1"/><path d="m125.882812 127.648438 9.972657 57.820312-51.90625-27.277344-51.90625 27.277344 9.886719-57.820312-41.929688-40.875 57.996094-8.472657 25.953125-52.523437 25.953125 52.523437 58 8.472657zm0 0" fill="#f3d55b"/><path d="m415.074219 123.675781-132.414063 132.414063 61.617188-169.316406zm0 0" fill="#f0c419"/><path d="m480.132812 185.46875-51.90625-27.277344-51.90625 27.277344 9.886719-57.820312-41.929687-40.875zm0 0" fill="#f18d46"/><path d="m386.207031 127.648438 46.519531 31.335937-150.066406 97.105469zm0 0" fill="#f29c1f"/><path d="m256.175781 273.742188 8.828125 123.585937-36.105468 2.207031zm0 0" fill="#f29c1f"/><path d="m283.453125 399.535156-27.277344-28.6875v-97.105468zm0 0" fill="#e57e25"/><path d="m480.132812 185.46875-197.472656 70.621094 93.660156-70.621094 56.40625-79.449219zm0 0" fill="#e57e25"/><g fill="#f3d55b"><path d="m470.15625 127.648438 9.976562 57.820312-51.90625-27.277344-51.90625 27.277344 9.886719-57.820312-41.929687-40.875 57.996094-8.472657 25.953124-52.523437 25.953126 52.523437 57.996093 8.472657zm0 0"/><path d="m300.316406 451.441406 10.414063 60.648438-54.554688-28.691406-54.554687 28.691406 10.417968-60.648438-44.136718-42.988281 60.996094-8.917969 27.277343-55.171875 27.277344 55.171875 61 8.917969zm0 0"/></g></svg>