<svg height="464pt" viewBox="0 0 464 464" width="464pt" xmlns="http://www.w3.org/2000/svg"><path d="m464 232c0 128.128906-103.871094 232-232 232s-232-103.871094-232-232 103.871094-232 232-232 232 103.871094 232 232zm0 0" fill="#f09e3e"/><path d="m424 232c0 106.039062-85.960938 192-192 192s-192-85.960938-192-192 85.960938-192 192-192 192 85.960938 192 192zm0 0" fill="#fc3"/><path d="m429.097656 341.0625-181.144531-105.0625 181.144531-105.0625c3.820313-2.21875 5.121094-7.117188 2.902344-10.9375-2.214844-3.824219-7.113281-5.128906-10.9375-2.910156l-181.0625 105.023437v-214.113281c0-4.417969-3.582031-8-8-8s-8 3.582031-8 8v214.113281l-181.0625-105.023437c-3.824219-2.21875-8.722656-.914063-10.9375 2.910156-2.21875 3.820312-.917969 8.71875 2.902344 10.9375l181.144531 105.0625-181.144531 105.0625c-3.820313 2.21875-5.121094 7.117188-2.902344 10.9375 2.214844 3.824219 7.113281 5.128906 10.9375 2.910156l181.0625-105.023437v206.113281c0 4.417969 3.582031 8 8 8s8-3.582031 8-8v-206.113281l181.0625 105.023437c3.824219 2.21875 8.722656.914063 10.9375-2.910156 2.21875-3.820312.917969-8.71875-2.902344-10.9375zm0 0" fill="#d68033"/><path d="m128 144c-13.253906 0-24-10.746094-24-24h16c0 4.417969 3.582031 8 8 8s8-3.582031 8-8h16c0 13.253906-10.746094 24-24 24zm0 0" fill="#88b337"/><path d="m296 168v-16c4.417969 0 8-3.582031 8-8s-3.582031-8-8-8v-16c13.253906 0 24 10.746094 24 24s-10.746094 24-24 24zm0 0" fill="#88b337"/><path d="m400 208h-16c0-4.417969-3.582031-8-8-8s-8 3.582031-8 8h-16c0-13.253906 10.746094-24 24-24s24 10.746094 24 24zm0 0" fill="#88b337"/><path d="m360 344h-16c0-4.417969-3.582031-8-8-8s-8 3.582031-8 8h-16c0-13.253906 10.746094-24 24-24s24 10.746094 24 24zm0 0" fill="#88b337"/><path d="m168 344c-13.253906 0-24-10.746094-24-24s10.746094-24 24-24v16c-4.417969 0-8 3.582031-8 8s3.582031 8 8 8zm0 0" fill="#88b337"/><path d="m88 288c-13.253906 0-24-10.746094-24-24h16c0 4.417969 3.582031 8 8 8s8-3.582031 8-8h16c0 13.253906-10.746094 24-24 24zm0 0" fill="#88b337"/><g fill="#f05d46"><path d="m192 104c-8.835938 0-16-7.164062-16-16s7.164062-16 16-16 16 7.164062 16 16-7.164062 16-16 16zm0-16"/><path d="m176 152c-8.835938 0-16-7.164062-16-16s7.164062-16 16-16 16 7.164062 16 16-7.164062 16-16 16zm0-16"/><path d="m280 88c0 8.835938-7.164062 16-16 16s-16-7.164062-16-16 7.164062-16 16-16 16 7.164062 16 16zm0 0"/><path d="m344 104c0 8.835938-7.164062 16-16 16s-16-7.164062-16-16 7.164062-16 16-16 16 7.164062 16 16zm0 0"/><path d="m376 288c-8.835938 0-16-7.164062-16-16s7.164062-16 16-16 16 7.164062 16 16-7.164062 16-16 16zm0-16"/><path d="m312 248c-8.835938 0-16-7.164062-16-16s7.164062-16 16-16 16 7.164062 16 16-7.164062 16-16 16zm0-16"/><path d="m272 392c-8.835938 0-16-7.164062-16-16s7.164062-16 16-16 16 7.164062 16 16-7.164062 16-16 16zm0-16"/><path d="m280 336c-8.835938 0-16-7.164062-16-16s7.164062-16 16-16 16 7.164062 16 16-7.164062 16-16 16zm0-16"/><path d="m216 376c0 8.835938-7.164062 16-16 16s-16-7.164062-16-16 7.164062-16 16-16 16 7.164062 16 16zm0 0"/><path d="m152 360c0 8.835938-7.164062 16-16 16s-16-7.164062-16-16 7.164062-16 16-16 16 7.164062 16 16zm0 0"/><path d="m88 208c-8.835938 0-16-7.164062-16-16s7.164062-16 16-16 16 7.164062 16 16-7.164062 16-16 16zm0-16"/><path d="m128 248c-8.835938 0-16-7.164062-16-16s7.164062-16 16-16 16 7.164062 16 16-7.164062 16-16 16zm0-16"/></g><path d="m192 168h16v16h-16zm0 0" fill="#fd882f"/><path d="m136 88h16v16h-16zm0 0" fill="#fd882f"/><path d="m264 128h16v16h-16zm0 0" fill="#fd882f"/><path d="m256 168h16v16h-16zm0 0" fill="#fd882f"/><path d="m336 240h16v16h-16zm0 0" fill="#fd882f"/><path d="m376 224h16v16h-16zm0 0" fill="#fd882f"/><path d="m248 272h16v16h-16zm0 0" fill="#fd882f"/><path d="m312 360h16v16h-16zm0 0" fill="#fd882f"/><path d="m192 328h16v16h-16zm0 0" fill="#fd882f"/><path d="m184 288h16v16h-16zm0 0" fill="#fd882f"/><path d="m160 224h16v16h-16zm0 0" fill="#fd882f"/><path d="m72 232h16v16h-16zm0 0" fill="#fd882f"/></svg>