<?xml version="1.0" encoding="iso-8859-1"?>
<!-- Generator: Adobe Illustrator 19.0.0, SVG Export Plug-In . SVG Version: 6.00 Build 0)  -->
<svg version="1.1" id="Capa_1" xmlns="http://www.w3.org/2000/svg" xmlns:xlink="http://www.w3.org/1999/xlink" x="0px" y="0px"
	 viewBox="0 0 512 512" style="enable-background:new 0 0 512 512;" xml:space="preserve">
<path style="fill:#FF9100;" d="M512,330.029c0,6.6-4.201,12.301-10.501,14.401c0,0-48.608,15.002-51.609,15.904
	c-58.509-51.309-112.818-98.717-167.127-146.423c-48.608-42.608-97.216-85.215-149.423-130.821c0,0,18.303-54.609,19.504-57.909
	c1.8-6.001,7.501-10.203,14.101-10.203c13.502,2.701,129.321-17.103,237.039,77.713c5.1,4.5,10.501,9.6,15.601,14.702
	C476.595,164.401,512,243.314,512,330.029z"/>
<path style="fill:#FF7816;" d="M512,330.029c0,6.6-4.201,12.301-10.501,14.401c0,0-48.608,15.002-51.609,15.904
	c-58.509-51.309-112.818-98.717-167.127-146.423l121.22-121.218c5.1,4.5,10.501,9.6,15.601,14.702
	C476.595,164.401,512,243.314,512,330.029z"/>
<path style="fill:#FFD400;" d="M449.89,360.334c-195.632,61.209-302.348,95.915-430.468,136.121c-5.102,1.5-11.102,0.3-15.302-3.901
	c-3.901-3.901-5.102-9.903-3.301-15.302c16.202-49.207,99.216-293.646,132.52-394.161c81.314-19.504,164.425-1.501,228.036,52.208
	c2.701,2.098,5.401,4.5,8.102,6.9C431.287,199.208,459.191,279.02,449.89,360.334z"/>
<path style="fill:#FDBF00;" d="M449.89,360.334c-195.632,61.209-302.348,95.915-430.468,136.121c-5.102,1.5-11.102,0.3-15.302-3.901
	l357.256-357.256c2.701,2.098,5.401,4.5,8.102,6.9C431.287,199.208,459.191,279.02,449.89,360.334z"/>
<path style="fill:#66BB00;" d="M316.969,345.031c-24.818,0-45.007-20.189-45.007-45.007c0-24.818,20.189-45.007,45.007-45.007
	c24.818,0,45.007,20.189,45.007,45.007C361.976,324.842,341.787,345.031,316.969,345.031z"/>
<path style="fill:#77DD00;" d="M168.745,328.229h-0.3c-8.1-8.402-19.203-13.202-31.505-13.202
	c-24.905,0-45.007,20.102-45.007,45.007c0,12.301,4.8,23.403,13.202,31.505v0.3c8.102,8.1,19.203,13.202,31.805,13.202
	c24.905,0,45.007-20.104,45.007-45.007C181.947,347.43,176.847,336.329,168.745,328.229z"/>
<path style="fill:#FF4B00;" d="M226.954,225.012c-24.818,0-45.007-20.189-45.007-45.007s20.189-45.007,45.007-45.007
	s45.007,20.189,45.007,45.007S251.773,225.012,226.954,225.012z"/>
<circle style="fill:#F03800;" cx="226.956" cy="330.033" r="15.002"/>
<circle style="fill:#66BB00;" cx="316.971" cy="210.014" r="15.002"/>
<circle style="fill:#FF4B00;" cx="166.946" cy="270.023" r="15.002"/>
<path style="fill:#66BB00;" d="M168.745,328.229c8.102,8.1,13.202,19.202,13.202,31.805c0,24.903-20.102,45.007-45.007,45.007
	c-12.601,0-23.703-5.102-31.805-13.202v-0.3l63.31-63.31H168.745z"/>
<g>
</g>
<g>
</g>
<g>
</g>
<g>
</g>
<g>
</g>
<g>
</g>
<g>
</g>
<g>
</g>
<g>
</g>
<g>
</g>
<g>
</g>
<g>
</g>
<g>
</g>
<g>
</g>
<g>
</g>
</svg>
