<svg id="Layer_1" enable-background="new 0 0 512 512" height="512" viewBox="0 0 512 512" width="512" xmlns="http://www.w3.org/2000/svg"><g><path d="m90.025 454.225 149.293 57.604c2.893.101 5.794.171 8.712.171 2.192 0 4.376-.032 6.553-.089l150.576-56.945c4.112-3.441 8.117-7.004 11.993-10.703l75.827-173.313c.021-1.316.05-2.629.05-3.949 0-135.309-109.69-244.998-244.999-244.998s-244.999 109.689-244.999 244.998l75.075 176.479c3.852 3.71 7.83 7.291 11.919 10.745z" fill="#1c2e7a"/><path d="m214.992 345.173-73.65-42.522-17.408 1.786-11.65-18.563-63.294-36.543c-16.767 31.432-26.28 67.331-26.28 105.479 0 3.01.08 6 .198 8.981 12.993 30.179 31.872 57.223 55.198 79.688l136.887-79.031c7.418-4.283 7.418-14.992-.001-19.275z" fill="#ffb332"/><path d="m234.226 243.949 5.092-17.815v-95.421c-77.141 2.576-144.347 44.019-182.684 105.404l165.992 95.835c7.419 4.283 16.693-1.071 16.693-9.637v-62.879z" fill="#ffdd40"/><path d="m239.318 322.315v-23.7c-37.792 9-49.363-26.839-49.363-26.839l-17.823-13.046c-22.604.906-22.021-19.768-22.021-19.768l-15.725-29.109c-16.858-5.634-16.768-21.54-14.928-31.283.483-2.559-.147-5.147-1.6-7.163-24.469 17.246-45.329 39.262-61.223 64.712l165.992 95.835c7.417 4.282 16.691-1.072 16.691-9.639z" fill="#ffb332"/><path d="m271.276 377.668c-7.419-4.284-16.693 1.071-16.693 9.637v69.822l9.226 16.197-9.226 14.089v24.499c32.937-.865 64.245-8.244 92.705-20.876-1.607-2.784-2.546-5.999-2.546-9.445 0-10.503 8.514-19.017 19.017-19.017 7.402 0 13.789 4.245 16.927 10.421 8.536-5.509 16.709-11.532 24.472-18.029z" fill="#ffb332"/><path d="m229.291 490.844c3.667 0 7.086 1.02 10.027 2.763v-106.301c0-8.567-9.274-13.921-16.693-9.637l-132.6 76.557c33.409 28.224 74.475 47.653 119.638 54.757.819-10.149 9.269-18.139 19.628-18.139z" fill="#ffb332"/><path d="m444.91 249.332-31.419 18.14-6.431 15.345h-20.148l-108.003 62.356c-7.419 4.283-7.419 14.991 0 19.275l138.243 79.815c22.283-21.266 40.55-46.696 53.58-75.034.302-4.767.459-9.574.459-14.419-.001-38.147-9.514-74.046-26.281-105.478z" fill="#ffdd40"/><path d="m429.584 389.502-20.736-9.059c-23.429 0-27.739-18.722-27.739-18.722l-37.055-13.64c-34.056 13.798-47.647-13.009-47.647-13.01l-17.498 10.103c-7.419 4.283-7.419 14.991 0 19.275l138.243 79.815c15.072-14.384 28.299-30.68 39.319-48.486-16.668 9.823-26.887-6.276-26.887-6.276z" fill="#ffb332"/><path d="m289.616 35.183v36.92l10.069 18.471-10.069 16.052v132.895c0 8.749 9.471 14.217 17.049 9.843l16.291-9.405c3.242-1.872 7.295.468 7.295 4.212v21.867c0 7.331 5.338 13.769 12.617 14.643 8.676 1.042 16.12-5.783 16.12-14.263v-27.625c0-.699.567-1.266 1.266-1.266.501 0 .945.302 1.155.757 2.253 4.885 6.335 8.266 12.125 8.196 7.938-.096 14.192-6.858 14.192-14.797v-24.473c0-2.876 1.534-5.533 4.024-6.97l18.553-10.711c2.261-1.305 5.087.326 5.087 2.937 0 7.392 5.413 13.89 12.761 14.687 8.655.939 15.976-5.816 15.976-14.281v-17.891c0-3.082 1.644-5.93 4.313-7.471l35.249-20.351c-38.714-66.96-111.084-111.976-194.073-111.976z" fill="#ffe98d"/><path d="m377.201 52.923c-26.897-11.422-56.496-17.74-87.585-17.74v36.92l10.069 18.47-10.069 16.052v132.895c0 8.749 9.471 14.217 17.049 9.843l16.291-9.405c3.242-1.872 7.295.468 7.295 4.212v21.867c0 7.331 5.338 13.769 12.617 14.643 8.676 1.042 16.12-5.783 16.12-14.263v-27.625c0-.699.567-1.265 1.266-1.265.501 0 .945.302 1.155.757 2.253 4.885 6.335 8.266 12.125 8.196 7.938-.096 14.192-6.858 14.192-14.797v-24.473c-19.053-2.737-12.774-25.388-12.774-25.388l-12.335-35.146c-12.335-16.546 2.154-31.822 2.154-31.822l8.879-26.452c-8.641-14.593-3.015-24.952 1.248-29.933 1.352-1.581 2.133-3.523 2.303-5.546z" fill="#ffdd40"/><g><ellipse cx="134.385" cy="229.592" fill="#ff4155" rx="19.74" ry="19.74" transform="matrix(.707 -.707 .707 .707 -122.986 162.27)"/></g><g><path d="m101.893 303.261c0 10.902 8.838 19.74 19.74 19.74s19.74-8.838 19.74-19.74c0-.206-.024-.405-.031-.609l-29.058-16.777c-6.185 3.333-10.391 9.867-10.391 17.386z" fill="#ff4155"/></g><g><ellipse cx="76.373" cy="386.551" fill="#ff4155" rx="19.74" ry="19.74" transform="matrix(.707 -.707 .707 .707 -250.964 167.222)"/></g><g><ellipse cx="167.715" cy="464.371" fill="#ff4155" rx="19.74" ry="19.74" transform="matrix(.23 -.973 .973 .23 -322.766 520.909)"/></g><path d="m362.615 459.837c-10.902 0-19.74 8.838-19.74 19.74 0 4.387 1.449 8.426 3.87 11.704 11.989-5.285 23.475-11.496 34.364-18.554-2.788-7.52-10.004-12.89-18.494-12.89z" fill="#ff4155"/><g><circle cx="362.615" cy="354.81" fill="#ff4155" r="19.74"/></g><g><circle cx="362.615" cy="166.417" fill="#ff4155" r="19.74"/></g><g><path d="m386.651 285.875c0 10.902 8.838 19.74 19.74 19.74s19.74-8.838 19.74-19.74c0-8.396-5.251-15.549-12.64-18.402l-26.579 15.345c-.156.998-.261 2.014-.261 3.057z" fill="#ff4155"/></g><g><path d="m267.238 452.53c-4.818 0-9.228 1.73-12.655 4.597v30.285c3.427 2.867 7.837 4.597 12.655 4.597 10.902 0 19.74-8.838 19.74-19.74 0-10.901-8.838-19.739-19.74-19.739z" fill="#ff4155"/></g><path d="m208.92 508.879c9.946 1.596 20.091 2.59 30.398 2.95v-18.823c-3.083-1.993-6.749-3.163-10.694-3.163-10.664.001-19.33 8.463-19.704 19.036z" fill="#ff4155"/><g><path d="m239.318 259.437v-33.303c-3.059-1.946-6.678-3.088-10.571-3.088-10.902 0-19.74 8.838-19.74 19.74s8.838 19.74 19.74 19.74c3.893-.001 7.512-1.144 10.571-3.089z" fill="#ff4155"/></g><g><path d="m181.724 271.943c-4.857-2.978-8.264-7.672-9.593-13.213-1.328-5.541-.419-11.267 2.56-16.125 2.203-3.594 6.903-4.719 10.497-2.516 3.593 2.203 4.72 6.903 2.516 10.497-.847 1.381-1.106 3.01-.728 4.587.378 1.576 1.347 2.911 2.728 3.758 3.593 2.203 4.72 6.903 2.516 10.497-2.202 3.591-6.902 4.719-10.496 2.515z" fill="#38c674"/></g><g><path d="m70.333 344.333c-11.763 0-21.333-9.569-21.333-21.333 0-4.216 3.417-7.633 7.633-7.633 4.215 0 7.633 3.417 7.633 7.633 0 3.345 2.722 6.067 6.067 6.067 4.215 0 7.633 3.417 7.633 7.633 0 4.217-3.418 7.633-7.633 7.633z" fill="#38c674"/></g><g><path d="m215.734 452.263c-11.763 0-21.333-9.57-21.333-21.332 0-4.216 3.417-7.633 7.633-7.633 4.215 0 7.633 3.417 7.633 7.633 0 3.345 2.722 6.066 6.067 6.066 4.215 0 7.633 3.417 7.633 7.633s-3.418 7.633-7.633 7.633z" fill="#38c674"/></g><g><path d="m300.992 500.532c-2.074-3.67-.78-8.327 2.891-10.4 1.41-.797 2.426-2.096 2.86-3.657s.234-3.198-.564-4.609c-2.074-3.67-.781-8.327 2.889-10.401 3.67-2.076 8.326-.782 10.401 2.889 2.804 4.961 3.508 10.717 1.983 16.207-1.525 5.491-5.097 10.059-10.059 12.862-3.671 2.074-8.329.777-10.401-2.891z" fill="#38c674"/></g><g><path d="m435.53 364.078c-5.014-2.707-8.672-7.205-10.303-12.666-1.63-5.46-1.037-11.229 1.672-16.242 2.003-3.708 6.634-5.09 10.343-3.088 3.709 2.004 5.092 6.634 3.088 10.343-.77 1.425-.939 3.066-.475 4.618.464 1.553 1.504 2.833 2.93 3.603 3.709 2.003 5.091 6.634 3.089 10.343-2.01 3.721-6.645 5.087-10.344 3.089z" fill="#38c674"/></g><g><path d="m318.891 210.331c-5.013-2.707-8.672-7.205-10.303-12.666-1.63-5.46-1.037-11.229 1.672-16.242 2.003-3.708 6.634-5.09 10.343-3.088 3.709 2.004 5.091 6.634 3.088 10.343-.77 1.425-.939 3.066-.475 4.618.464 1.553 1.504 2.833 2.93 3.603 3.709 2.003 5.092 6.634 3.089 10.343-2.009 3.721-6.645 5.087-10.344 3.089z" fill="#38c674"/></g><g><path d="m206.302 175.699h-14.305c-3.755 0-6.799 3.044-6.799 6.799v14.306c0 6.057 7.323 9.09 11.606 4.808l14.306-14.306c4.282-4.284 1.249-11.607-4.808-11.607z" fill="#fcf0be"/></g><g><path d="m373.772 110.575 4.31-13.641c1.131-3.58-.854-7.4-4.434-8.532l-13.641-4.31c-5.776-1.825-10.875 4.244-8.081 9.618l9.331 17.951c2.793 5.375 10.69 4.689 12.515-1.086z" fill="#fcf0be"/></g><g><path d="m142.737 358.634h-14.305c-3.755 0-6.799 3.044-6.799 6.799v14.306c0 6.057 7.323 9.09 11.606 4.808l14.306-14.306c4.283-4.283 1.249-11.607-4.808-11.607z" fill="#fcf0be"/></g><g><path d="m423.153 380.443h-14.305c-3.755 0-6.799 3.044-6.799 6.799v14.306c0 6.057 7.323 9.09 11.606 4.808l14.306-14.306c4.283-4.284 1.249-11.607-4.808-11.607z" fill="#fcf0be"/></g><g><path d="m330.928 437.609-10.327-9.9c-2.711-2.599-7.015-2.508-9.613.203l-9.9 10.327c-4.192 4.373-1.004 11.63 5.051 11.502l20.227-.427c6.057-.128 8.935-7.514 4.562-11.705z" fill="#fcf0be"/></g><g><path d="m158.959 195.038h-4.834c-4.215 0-7.633-3.417-7.633-7.633s3.417-7.633 7.633-7.633h4.834c4.215 0 7.633 3.417 7.633 7.633s-3.418 7.633-7.633 7.633z" fill="#ffb332"/></g><g><path d="m144.985 342.81-2.573-4.093c-2.243-3.569-1.169-8.281 2.4-10.525 3.568-2.243 8.281-1.169 10.524 2.399l2.573 4.093c2.244 3.569 1.169 8.281-2.4 10.525-3.568 2.244-8.28 1.169-10.524-2.399z" fill="#ffb332"/></g><g><path d="m403.363 340.45-4.613-1.445c-4.023-1.26-6.262-5.543-5.002-9.566 1.26-4.022 5.541-6.259 9.566-5.002l4.613 1.445c4.022 1.26 6.262 5.543 5.002 9.566-1.25 3.987-5.507 6.27-9.566 5.002z" fill="#ffb332"/></g><g><path d="m416.032 145.802-4.613-1.445c-4.023-1.26-6.262-5.543-5.002-9.566 1.261-4.022 5.542-6.261 9.566-5.002l4.613 1.445c4.023 1.26 6.262 5.543 5.002 9.566-1.25 3.988-5.507 6.271-9.566 5.002z" fill="#ffb332"/></g><g><path d="m299.183 69.625c-3.473 0-6.732.904-9.567 2.479v34.522c2.835 1.575 6.094 2.479 9.567 2.479 10.902 0 19.74-8.838 19.74-19.74 0-10.903-8.838-19.74-19.74-19.74z" fill="#ff4155"/></g><g><g><path d="m506.642 116.609c-43.819-66.597-117.473-111.776-202.014-116.585-8.143-.463-15.012 5.997-15.012 14.153v22.538h1.526c39.258.268 77.726 10.856 111.339 30.661 32.62 19.22 59.947 46.592 79.115 79.229l.526 1.46 19.753-11.404c7.052-4.073 9.243-13.248 4.767-20.052z" fill="#ffc839"/></g></g><path d="m289.615 14.177v22.538h1.527c29.637.202 58.822 6.29 85.809 17.781.354-1.405.399-2.888.101-4.351-3.653-17.954 9.377-23.703 17.037-25.52 1.283-.304 2.462-.864 3.491-1.619-28.57-13.066-59.931-21.104-92.952-22.983-8.143-.463-15.013 5.998-15.013 14.154z" fill="#ffb332"/><g><g><path d="m227.067 95.708c-80.805 6.101-151.225 49.078-194.519 112.167-3.795 5.53-2.121 13.112 3.686 16.465l21.816 12.595.719-1.348c39.229-61.845 105.942-100.337 179.021-103.291h1.527v-25.152c.001-6.639-5.628-11.936-12.25-11.436z" fill="#ffb332"/></g></g><path d="m36.235 224.34 21.815 12.595.72-1.348c15.905-25.075 36.33-46.309 59.864-62.894-.92-1.847-2.445-3.385-4.422-4.263-12.023-5.343-13.393-16.958-13.037-23.852.079-1.53-.239-3.013-.852-4.356-26.553 18.17-49.569 41.123-67.774 67.652-3.795 5.531-2.122 13.113 3.686 16.466z" fill="#ff9100"/><path d="m24.619 367.703c-.249-4.289-.382-8.589-.382-12.893 0-35.995 8.766-71.7 25.363-103.364l.803-1.299-21.826-12.602c-5.802-3.35-13.201-1.019-16.096 5.023-3.483 7.269-6.616 14.736-9.424 22.362-.006.691-.026 1.379-.026 2.071 0 35.894 7.72 69.983 21.588 100.702z" fill="#ff9100"/><path d="m492.978 270.95c-3.312-9.73-7.165-19.21-11.559-28.382-2.895-6.042-10.294-8.373-16.096-5.023l-21.827 12.602.803 1.299c16.597 31.664 25.363 67.37 25.363 103.364 0 6.141-.275 12.272-.781 18.377 14.939-31.009 23.519-65.651 24.097-102.237z" fill="#ffb332"/><g fill="#ff7186"><circle cx="139.793" cy="224.006" r="8.183"/><ellipse cx="366.767" cy="163.223" rx="8.183" ry="8.183" transform="matrix(.707 -.707 .707 .707 -7.992 307.151)"/><ellipse cx="410.232" cy="282.438" rx="8.183" ry="8.183" transform="matrix(.23 -.973 .973 .23 41.098 616.805)"/><ellipse cx="364.085" cy="351.438" rx="8.183" ry="8.183" transform="matrix(.924 -.383 .383 .924 -106.775 166.08)"/><circle cx="302.269" cy="84.761" r="8.183"/><ellipse cx="79.562" cy="382.291" rx="8.183" ry="8.183" transform="matrix(.23 -.973 .973 .23 -310.782 371.893)"/><circle cx="172.854" cy="460.713" r="8.183"/><circle cx="270.781" cy="468.02" r="8.183"/><path d="m368.031 468.02c-4.519 0-8.183 3.663-8.183 8.183 0 2.879 1.49 5.405 3.737 6.864 4.281-2.293 8.485-4.71 12.609-7.246-.201-4.341-3.773-7.801-8.163-7.801z"/><path d="m239.318 500.531c-1.333-.943-2.957-1.501-4.714-1.501-4.519 0-8.183 3.664-8.183 8.183 0 1.417.361 2.75.995 3.912 3.942.328 7.909.565 11.902.705z"/><path d="m115.245 298.256c0 4.519 3.663 8.183 8.183 8.183 4.519 0 8.183-3.663 8.183-8.183 0-.439-.044-.867-.111-1.288l-10.994-6.348c-3.075 1.178-5.261 4.148-5.261 7.636z"/><path d="m239.318 234.695c-1.439-2.346-4.019-3.916-6.973-3.916-4.519 0-8.183 3.664-8.183 8.183s3.663 8.183 8.183 8.183c2.954 0 5.534-1.57 6.973-3.916z"/></g></g></svg>